<?xml version="1.0" standalone="no"?>
<!DOCTYPE svg PUBLIC "-//W3C//DTD SVG 20010904//EN"
 "http://www.w3.org/TR/2001/REC-SVG-20010904/DTD/svg10.dtd">
<svg version="1.0" xmlns="http://www.w3.org/2000/svg"
 width="174.000000pt" height="174.000000pt" viewBox="0 0 174.000000 174.000000"
 preserveAspectRatio="xMidYMid meet">
<metadata>
Created by potrace 1.10, written by Peter Selinger 2001-2011
</metadata>
<g transform="translate(0.000000,174.000000) scale(0.050000,-0.050000)"
fill="#000000" stroke="none">
<path d="M2986 3410 c-307 -91 -313 -97 -197 -175 l68 -47 -300 -369 c-166
-203 -308 -377 -317 -386 -9 -10 -189 143 -400 340 -409 381 -437 401 -509
362 -42 -23 -936 -822 -1116 -997 -86 -84 -97 -156 -35 -218 89 -89 118 -70
671 430 285 258 524 470 529 470 6 0 177 -154 380 -343 204 -188 390 -355 415
-372 87 -58 128 -22 497 430 194 239 365 447 378 461 20 22 36 17 88 -28 91
-76 102 -52 107 241 6 303 26 287 -259 201z"/>
<path d="M2732 2315 c-38 -60 -29 -2220 9 -2267 36 -43 524 -40 568 3 38 39
48 2200 10 2270 -34 64 -545 59 -587 -6z m376 -207 c41 -16 47 -299 7 -315
-19 -7 -18 -15 5 -31 26 -19 26 -25 1 -40 -24 -16 -24 -24 -1 -52 23 -28 23
-36 -1 -51 -20 -13 -21 -18 -4 -19 14 0 25 -18 25 -40 0 -22 -11 -41 -25 -42
-18 -1 -17 -4 2 -12 23 -9 23 -14 0 -28 -21 -14 -22 -21 -2 -34 32 -21 29
-244 -3 -244 -12 0 -8 -9 8 -20 27 -17 27 -19 0 -20 -27 -1 -27 -3 0 -20 27
-18 27 -22 0 -40 -20 -13 -22 -19 -5 -20 14 0 25 -13 25 -28 0 -16 -11 -33
-25 -39 -19 -7 -18 -15 5 -31 27 -20 27 -24 0 -44 -23 -16 -24 -24 -5 -31 14
-6 25 -41 25 -79 0 -40 -10 -69 -25 -70 -20 -1 -20 -3 0 -11 14 -6 25 -23 25
-39 0 -15 -11 -29 -25 -30 -20 -1 -20 -3 0 -11 14 -6 25 -22 25 -37 0 -15 -11
-32 -25 -38 -20 -10 -20 -14 0 -24 14 -6 25 -23 25 -38 0 -15 -11 -31 -25 -37
-19 -7 -18 -15 5 -31 27 -20 27 -24 0 -44 -23 -16 -24 -24 -5 -31 14 -6 25
-37 25 -69 0 -32 -11 -59 -25 -60 -19 -1 -19 -4 1 -12 36 -14 -32 -65 -86 -65
-47 0 -115 47 -96 66 7 7 2 13 -11 13 -13 0 -23 23 -23 50 0 28 9 50 20 50 29
0 25 55 -5 67 -19 7 -18 16 5 33 23 17 24 26 5 33 -14 6 -25 22 -25 37 0 15
11 32 25 38 20 10 20 14 0 24 -14 6 -25 24 -25 40 0 15 11 29 25 30 20 1 20 3
0 11 -14 6 -25 23 -25 39 0 15 11 29 25 30 20 1 20 3 0 11 -14 6 -25 40 -25
77 0 37 11 71 25 77 19 7 18 15 -5 31 -27 20 -27 24 0 44 23 16 24 24 5 31
-14 6 -25 23 -25 39 0 15 11 28 25 28 17 1 15 7 -5 20 -27 18 -27 22 0 40 27
17 27 20 0 21 -24 2 -24 4 -3 13 23 9 23 14 0 28 -22 15 -22 21 3 38 20 13 22
19 5 20 -16 0 -25 31 -25 88 0 51 11 94 25 100 19 9 19 15 -2 24 -23 11 -23
16 0 30 20 13 20 17 2 18 -14 0 -25 18 -25 40 0 22 11 40 25 40 17 1 16 6 -4
19 -24 15 -24 23 -1 51 23 28 23 36 -1 52 -25 15 -25 21 1 40 23 16 24 24 5
31 -14 6 -25 45 -25 89 0 48 10 79 25 80 20 1 20 3 0 11 -14 6 -25 28 -25 50
0 80 106 124 208 85z"/>
<path d="M1057 2104 c-59 -42 -58 -2032 2 -2063 50 -27 492 -27 542 0 53 28
62 2015 10 2058 -43 36 -504 39 -554 5z m354 -213 c36 -35 38 -111 4 -111 -17
-1 -15 -7 5 -20 27 -18 27 -22 0 -40 -20 -13 -22 -19 -5 -20 14 0 25 -18 25
-40 0 -22 -11 -41 -25 -42 -20 -1 -20 -3 0 -11 14 -6 25 -28 25 -49 0 -21 -11
-38 -25 -38 -17 -1 -15 -7 5 -20 27 -18 27 -22 0 -40 -20 -13 -22 -19 -5 -20
34 0 34 -180 0 -180 -17 -1 -15 -7 5 -22 25 -17 25 -23 3 -32 -23 -9 -23 -14
0 -28 22 -14 22 -17 -3 -18 -27 -1 -27 -3 0 -20 27 -18 27 -22 0 -40 -20 -13
-22 -19 -5 -20 14 0 25 -13 25 -28 0 -16 -11 -33 -25 -39 -19 -7 -18 -15 5
-31 27 -20 27 -24 0 -44 -23 -16 -24 -24 -5 -31 33 -14 33 -146 0 -149 -20 -1
-20 -3 0 -11 14 -6 25 -23 25 -39 0 -15 -11 -29 -25 -30 -20 -1 -20 -3 0 -11
14 -6 25 -22 25 -37 0 -15 -11 -32 -25 -38 -20 -10 -20 -14 0 -24 14 -6 25
-23 25 -38 0 -15 -11 -31 -25 -37 -19 -7 -18 -15 5 -31 27 -20 27 -24 0 -44
-23 -16 -24 -24 -5 -31 14 -6 25 -37 25 -69 0 -32 -11 -59 -25 -60 -20 -1 -20
-3 0 -11 19 -8 18 -17 -4 -39 -32 -32 -131 -38 -131 -8 0 11 -13 20 -30 20
-32 0 -32 41 0 65 13 9 12 14 -3 15 -16 0 -22 47 -18 150 3 83 -3 150 -13 150
-10 0 -8 18 4 40 15 29 15 40 0 40 -13 0 -16 10 -9 22 18 29 20 804 2 833 -7
12 1 36 18 53 18 18 23 32 13 32 -27 0 -24 241 3 273 31 34 129 34 164 -2z"/>
<path d="M1884 1696 c-47 -47 -33 -1630 15 -1655 50 -27 492 -27 542 0 48 25
62 1608 15 1655 -33 33 -539 33 -572 0z m356 -226 c0 -16 9 -30 20 -30 11 0
20 -40 20 -90 0 -59 -9 -90 -25 -90 -17 -1 -15 -7 5 -22 25 -17 25 -23 3 -32
-23 -9 -23 -14 0 -28 22 -14 22 -17 -3 -18 -27 -1 -27 -3 0 -20 27 -18 27 -22
0 -40 -20 -13 -22 -19 -5 -20 14 0 25 -13 25 -28 0 -16 -11 -33 -25 -39 -17
-7 -18 -15 -4 -26 33 -25 36 -210 5 -230 -20 -13 -20 -16 -1 -17 14 0 25 -13
25 -30 0 -16 -11 -31 -25 -32 -20 -1 -20 -3 0 -11 14 -6 25 -22 25 -37 0 -15
-11 -32 -25 -38 -20 -10 -20 -14 0 -24 14 -6 25 -23 25 -38 0 -15 -11 -31 -25
-37 -19 -7 -18 -15 5 -31 27 -20 27 -24 0 -42 -27 -17 -27 -19 0 -20 27 -1 27
-3 0 -20 -20 -13 -22 -19 -5 -20 14 0 25 -22 25 -50 0 -27 -11 -50 -25 -50
-17 -1 -15 -7 5 -20 22 -14 23 -19 4 -20 -15 0 -22 -7 -17 -16 17 -27 -107
-26 -145 1 -30 21 -53 1157 -25 1280 7 31 163 16 163 -15z"/>
<path d="M235 1278 c-32 -18 -35 -70 -35 -618 0 -706 -32 -640 310 -640 342 0
310 -64 310 629 0 508 -4 592 -31 620 -37 37 -493 45 -554 9z m365 -218 c27
-18 27 -22 0 -40 -27 -18 -27 -22 0 -40 27 -18 27 -22 0 -42 -23 -16 -24 -24
-5 -31 14 -6 25 -41 25 -79 0 -40 -10 -69 -25 -70 -20 -1 -20 -3 0 -11 14 -6
25 -23 25 -39 0 -15 -11 -29 -25 -30 -20 -1 -20 -3 0 -11 14 -6 25 -22 25 -37
0 -15 -11 -32 -25 -38 -20 -10 -20 -14 0 -24 32 -15 32 -62 0 -75 -19 -7 -18
-16 5 -33 23 -17 24 -26 5 -33 -14 -6 -25 -24 -25 -40 0 -16 10 -23 22 -16 28
17 16 -95 -12 -116 -12 -9 -10 -15 6 -15 21 0 20 -7 -3 -30 -33 -33 -143 -42
-123 -10 7 11 -4 20 -25 20 -32 0 -58 806 -28 855 9 14 157 2 183 -15z"/>
</g>
</svg>
